<svg xmlns="http://www.w3.org/2000/svg" width="89.777" height="72.08" viewBox="0 0 89.777 72.08">
    <g>
        <path fill="#c5d7ee" d="M84.714 14.33H5.06A5.063 5.063 0 0 0 0 19.393V81.35a5.066 5.066 0 0 0 5.06 5.06h79.654a5.065 5.065 0 0 0 5.063-5.06V19.39a5.065 5.065 0 0 0-5.063-5.06zm-5.057 10.117v45.607l-11.57-14.043a1.258 1.258 0 0 0-1.718-.212l-13.456 9.826-23.106-22.477a1.31 1.31 0 0 0-1-.355 1.261 1.261 0 0 0-.919.534L10.12 68.749v-44.3zM49.314 43.416a8.216 8.216 0 1 1 8.214 8.217 8.228 8.228 0 0 1-8.214-8.217z" transform="translate(0 -14.33)"/>
    </g>
</svg>
