<svg xmlns="http://www.w3.org/2000/svg" xmlns:xlink="http://www.w3.org/1999/xlink" width="500" zoomAndPan="magnify" viewBox="0 0 375 374.999991" height="500" preserveAspectRatio="xMidYMid meet" version="1.0"><defs><clipPath id="ec00676b36"><path d="M 0 39 L 300 39 L 300 337.5 L 0 337.5 Z M 0 39 " clip-rule="nonzero"/></clipPath></defs><path fill="#ffffff" d="M 292.285156 153.644531 C 288.429688 147.855469 285.214844 141.429688 286.285156 134.570312 C 287.355469 128.570312 291 123 291.214844 117 C 291.644531 107.785156 284.144531 100.285156 276.429688 95.570312 C 271.714844 92.785156 266.570312 90.214844 263.144531 86.144531 C 256.714844 78.429688 258.214844 65.355469 266.355469 59.355469 C 266.355469 59.355469 265.929688 71.144531 283.5 77.355469 C 301.070312 83.570312 359.785156 116.570312 309 166.929688 C 309 166.929688 300.855469 166.929688 292.285156 153.644531 Z M 292.285156 153.644531 " fill-opacity="1" fill-rule="nonzero"/><g clip-path="url(#ec00676b36)"><path fill="#ffffff" d="M 300 183.644531 L 213.429688 183.429688 L 267.429688 259.5 L 262.929688 265.714844 L 208.070312 190.070312 L 205.929688 191.144531 C 206.570312 191.144531 207.214844 191.144531 207.855469 190.929688 C 208.285156 203.144531 204 215.570312 195.855469 225 C 187.929688 234.429688 176.144531 240.429688 163.929688 241.929688 L 165 241.929688 C 165.214844 261 151.285156 279.429688 132.855469 284.355469 C 128.144531 285.644531 122.570312 285.214844 118.285156 288 C 110.785156 292.929688 111.429688 296.144531 111.429688 296.144531 C 110.144531 303.214844 114 310.070312 116.355469 316.929688 C 118.929688 323.570312 119.785156 332.355469 114.214844 337.070312 L 114.429688 336.855469 C 103.070312 325.285156 91.714844 313.929688 80.355469 302.355469 C 79.929688 301.929688 79.285156 301.285156 79.285156 300.644531 C 79.285156 300.214844 79.714844 299.570312 79.714844 299.144531 C 81.644531 280.285156 97.714844 281.785156 112.5 274.070312 C 127.285156 266.355469 124.929688 245.785156 124.929688 245.785156 C 119.785156 246.644531 114.644531 245.785156 110.144531 243.429688 C 106.714844 241.714844 103.714844 238.929688 102 235.714844 L 101.785156 235.714844 C 94.714844 246.644531 80.570312 252.644531 67.929688 250.070312 C 55.070312 247.5 44.355469 236.785156 42 223.929688 C 39.855469 212.355469 43.285156 198.429688 34.929688 190.285156 C 29.785156 185.144531 22.070312 184.285156 15.214844 182.355469 C 8.355469 180.429688 0.644531 176.144531 0 169.070312 L 0 169.285156 C 15.855469 166.714844 31.929688 164.144531 47.785156 161.355469 C 48.429688 161.144531 49.285156 161.144531 49.714844 161.570312 C 50.144531 161.785156 50.355469 162.429688 50.570312 162.855469 C 53.355469 168.644531 52.285156 176.144531 48 180.855469 L 49.285156 179.570312 C 49.714844 179.355469 48.644531 179.144531 48.855469 179.570312 C 53.570312 187.714844 58.929688 195.644531 64.5 203.355469 C 66.214844 205.929688 68.144531 208.5 70.929688 210 C 74.355469 211.714844 78.429688 211.5 82.070312 210 C 85.714844 208.5 88.714844 206.144531 91.714844 203.570312 C 96 199.929688 100.070312 196.070312 102.429688 191.144531 C 102.429688 190.929688 102.644531 190.714844 102.855469 190.714844 C 103.070312 190.714844 102.855469 191.355469 102.855469 191.144531 L 105 191.570312 C 99.855469 189.214844 96.429688 183.644531 96.429688 177.855469 C 92.144531 179.570312 86.785156 178.5 83.570312 175.285156 C 80.144531 172.070312 78.855469 166.929688 80.355469 162.644531 C 68.785156 159.214844 62.144531 144.855469 66.855469 133.714844 C 61.5 132.644531 58.070312 127.070312 57.644531 121.714844 C 57.214844 116.355469 59.570312 111 62.144531 106.285156 C 55.285156 100.285156 54.855469 88.285156 61.070312 81.855469 C 55.5 76.714844 54.214844 67.5 58.070312 61.070312 L 152.144531 139.929688 C 159.644531 137.355469 164.570312 129 163.070312 121.285156 L 166.285156 119.355469 C 162.214844 122.355469 156.644531 123.644531 152.144531 121.285156 C 147.644531 118.929688 146.144531 111.855469 150 108.855469 C 144.644531 109.070312 141.214844 101.355469 145.070312 97.5 C 141.429688 99.429688 136.5 96.855469 135.214844 93 C 133.929688 89.144531 135.429688 84.644531 138.429688 81.644531 C 141 79.070312 145.285156 77.355469 148.5 79.5 C 144 76.714844 141.644531 70.929688 143.144531 65.785156 C 144.644531 60.644531 149.570312 56.785156 154.714844 56.785156 C 155.785156 49.929688 160.714844 43.5 167.144531 40.714844 C 173.570312 37.929688 181.5 38.570312 187.285156 42.644531 C 188.570312 43.5 189.644531 44.355469 191.144531 44.570312 C 194.144531 45 196.714844 42 199.5 40.714844 C 203.785156 38.570312 208.929688 40.714844 213 43.285156 C 217.070312 45.855469 220.714844 49.285156 225.429688 50.144531 C 230.144531 51.214844 236.144531 48.214844 236.144531 43.5 C 240.214844 48.214844 241.5 55.070312 239.355469 60.855469 C 237.214844 66.644531 231.644531 71.144531 225.644531 72 L 226.5 71.355469 C 223.285156 76.714844 227.144531 83.355469 229.5 89.355469 C 232.929688 97.714844 232.929688 108 227.144531 115.070312 C 223.714844 119.355469 218.570312 121.714844 213.855469 124.5 C 209.144531 127.285156 204.429688 130.929688 202.929688 136.285156 C 201 142.5 204.644531 149.785156 210.644531 152.144531 L 265.5 76.714844 L 270 82.929688 L 218.144531 154.5 L 294.644531 160.285156 " fill-opacity="1" fill-rule="nonzero"/></g><path fill="#ffffff" d="M 292.285156 190.714844 C 288.429688 196.5 285.214844 202.929688 286.285156 209.785156 C 287.355469 215.785156 291 221.355469 291.214844 227.355469 C 291.644531 236.570312 284.144531 244.070312 276.429688 248.785156 C 271.714844 251.570312 266.570312 254.144531 263.144531 258.214844 C 256.714844 265.929688 258.214844 279 266.355469 285 C 266.355469 285 265.929688 273.214844 283.5 267 C 301.070312 260.570312 359.785156 227.785156 309 177.429688 C 309 177.429688 300.855469 177.429688 292.285156 190.714844 Z M 292.285156 190.714844 " fill-opacity="1" fill-rule="nonzero"/><path fill="#ffffff" d="M 319.929688 186.855469 L 297 186.855469 C 293.570312 186.855469 290.785156 184.070312 290.785156 180.644531 L 290.785156 162.214844 C 290.785156 158.785156 293.570312 156 297 156 L 319.929688 156 C 323.355469 156 326.144531 158.785156 326.144531 162.214844 L 326.144531 180.855469 C 325.929688 184.070312 323.144531 186.855469 319.929688 186.855469 Z M 319.929688 186.855469 " fill-opacity="1" fill-rule="nonzero"/><path fill="#ffffff" d="M 253.285156 174 C 253.285156 174 321.644531 174 355.5 174 C 360.214844 174 364.714844 174 371.144531 174 C 373.285156 174 373.285156 169.714844 371.144531 169.714844 C 336.855469 169.714844 302.144531 169.714844 268.285156 169.714844 C 263.570312 169.714844 257.570312 169.714844 253.285156 169.714844 C 249 169.714844 249 174 253.285156 174 C 253.285156 174 249 174 253.285156 174 Z M 253.285156 174 " fill-opacity="1" fill-rule="nonzero"/><path fill="#ffffff" d="M 355.929688 183.644531 L 355.929688 160.5 C 355.929688 159.855469 356.785156 159.429688 357.214844 159.855469 L 374.570312 171.214844 C 375 171.644531 375 172.285156 374.570312 172.714844 L 357.214844 184.5 C 356.570312 184.714844 355.929688 184.285156 355.929688 183.644531 Z M 355.929688 183.644531 " fill-opacity="1" fill-rule="nonzero"/></svg>