<svg xmlns="http://www.w3.org/2000/svg" xmlns:xlink="http://www.w3.org/1999/xlink" width="500" zoomAndPan="magnify" viewBox="0 0 375 374.999991" height="500" preserveAspectRatio="xMidYMid meet" version="1.0"><defs><clipPath id="2740f2b402"><path d="M 0 60 L 290.25 60 L 290.25 310.589844 L 0 310.589844 Z M 0 60 " clip-rule="nonzero"/></clipPath><clipPath id="d32458232f"><path d="M 53 50.339844 L 200 50.339844 L 200 229 L 53 229 Z M 53 50.339844 " clip-rule="nonzero"/></clipPath><clipPath id="a434e2c6c1"><path d="M 205.523438 102 L 342 102 L 342 237.691406 L 205.523438 237.691406 Z M 205.523438 102 " clip-rule="nonzero"/></clipPath></defs><g clip-path="url(#2740f2b402)"><path fill="#f9fdff" d="M 140.097656 102.691406 C 142.335938 104.492188 142.691406 107.769531 140.890625 110.007812 C 139.089844 112.25 135.816406 112.605469 133.578125 110.804688 L 86.003906 72.355469 L 42.328125 107.90625 L 42.328125 220.886719 C 42.328125 223.390625 40.5625 225.484375 38.207031 225.992188 C 29.527344 228.382812 22.300781 233.675781 17.40625 240.617188 C 12.460938 247.628906 9.898438 256.328125 10.621094 265.414062 C 11.34375 274.5 15.257812 282.679688 21.246094 288.816406 C 27.234375 294.949219 35.3125 299.050781 44.363281 299.988281 C 53.421875 300.921875 62.171875 298.558594 69.292969 293.773438 C 76.40625 288.992188 81.90625 281.785156 84.46875 273.042969 C 85.136719 270.777344 87.210938 269.304688 89.460938 269.308594 L 89.460938 269.292969 L 174.949219 269.292969 L 190.269531 253.960938 C 192.308594 251.925781 195.605469 251.925781 197.640625 253.960938 C 197.867188 254.1875 198.070312 254.433594 198.246094 254.691406 L 211.132812 270.003906 L 220.242188 258.15625 C 221.996094 255.882812 225.261719 255.460938 227.53125 257.21875 C 227.765625 257.402344 227.984375 257.601562 228.179688 257.8125 L 228.183594 257.808594 L 239.65625 270.246094 L 250.550781 256.195312 C 252.300781 253.921875 255.570312 253.5 257.839844 255.257812 C 258.167969 255.515625 258.460938 255.804688 258.714844 256.113281 L 258.71875 256.113281 L 268.078125 267.773438 L 278.226562 255.476562 L 270.140625 245.679688 L 85.300781 245.679688 C 82.421875 245.679688 80.085938 243.34375 80.085938 240.460938 C 80.085938 237.582031 82.421875 235.242188 85.300781 235.242188 L 272.589844 235.242188 L 272.589844 235.253906 C 274.089844 235.253906 275.570312 235.894531 276.601562 237.144531 L 288.984375 252.140625 L 288.976562 252.152344 C 290.53125 254.027344 290.59375 256.8125 288.984375 258.769531 L 272.199219 279.121094 C 271.941406 279.464844 271.636719 279.785156 271.285156 280.070312 C 269.050781 281.871094 265.773438 281.511719 263.976562 279.273438 L 254.738281 267.777344 L 244.265625 281.285156 C 244.050781 281.585938 243.808594 281.871094 243.527344 282.128906 C 241.417969 284.078125 238.121094 283.9375 236.175781 281.824219 L 224.722656 269.40625 L 215.4375 281.476562 L 215.429688 281.472656 C 215.207031 281.761719 214.949219 282.027344 214.664062 282.269531 C 212.46875 284.117188 209.195312 283.832031 207.351562 281.640625 L 193.640625 265.347656 L 180.851562 278.148438 C 179.902344 279.128906 178.578125 279.738281 177.105469 279.738281 L 93.179688 279.738281 C 89.546875 289.195312 83.121094 297.015625 75.078125 302.421875 C 65.996094 308.523438 54.847656 311.539062 43.300781 310.347656 C 31.75 309.15625 21.441406 303.917969 13.792969 296.082031 C 6.148438 288.25 1.160156 277.820312 0.234375 266.242188 C -0.6875 254.667969 2.585938 243.582031 8.898438 234.640625 C 14.46875 226.742188 22.40625 220.511719 31.898438 217.082031 L 31.898438 105.460938 L 31.917969 105.460938 C 31.917969 103.953125 32.574219 102.453125 33.839844 101.425781 L 82.59375 61.742188 C 84.457031 60.125 87.269531 60.015625 89.261719 61.617188 L 140.101562 102.707031 Z M 74.722656 97.125 L 83.234375 97.125 L 83.234375 105.640625 L 74.722656 105.640625 Z M 87.828125 97.125 L 96.335938 97.125 L 96.335938 105.640625 L 87.828125 105.640625 Z M 96.335938 110.238281 L 96.335938 118.753906 L 87.828125 118.753906 L 87.828125 110.238281 Z M 83.234375 118.753906 L 74.722656 118.753906 L 74.722656 110.238281 L 83.234375 110.238281 Z M 47.875 250.957031 C 54.496094 250.957031 59.867188 256.328125 59.867188 262.957031 C 59.867188 269.582031 54.496094 274.957031 47.875 274.957031 C 41.253906 274.957031 35.882812 269.585938 35.882812 262.957031 C 35.882812 256.332031 41.25 250.957031 47.875 250.957031 Z M 47.875 250.957031 " fill-opacity="1" fill-rule="evenodd"/></g><g clip-path="url(#d32458232f)"><path fill="#f9fdff" d="M 199.40625 222.839844 C 199.40625 225.71875 197.070312 228.058594 194.191406 228.058594 L 155.410156 228.058594 C 152.53125 228.058594 150.195312 225.71875 150.195312 222.839844 L 150.195312 174.410156 L 100.710938 133.734375 L 62.304688 166.160156 C 60.109375 168.015625 56.828125 167.746094 54.96875 165.546875 C 53.117188 163.351562 53.386719 160.066406 55.582031 158.207031 L 97.296875 122.988281 L 97.300781 122.992188 C 99.179688 121.402344 101.988281 121.324219 103.957031 122.949219 L 158.359375 167.664062 C 159.722656 168.605469 160.621094 170.179688 160.621094 171.964844 L 160.621094 217.621094 L 188.972656 217.621094 L 188.972656 96.609375 L 143.390625 62.105469 L 125.691406 75.949219 C 123.429688 77.714844 120.164062 77.3125 118.402344 75.050781 C 116.636719 72.789062 117.039062 69.523438 119.296875 67.757812 L 139.878906 51.664062 C 141.695312 50.03125 144.46875 49.863281 146.488281 51.386719 L 197.09375 89.6875 C 198.488281 90.628906 199.40625 92.21875 199.40625 94.023438 Z M 89.109375 163.648438 L 97.621094 163.648438 L 97.621094 172.164062 L 89.109375 172.164062 Z M 102.214844 163.648438 L 110.722656 163.648438 L 110.722656 172.164062 L 102.214844 172.164062 Z M 110.722656 176.761719 L 110.722656 185.277344 L 102.214844 185.277344 L 102.214844 176.761719 Z M 97.621094 185.277344 L 89.109375 185.277344 L 89.109375 176.761719 L 97.621094 176.761719 Z M 97.621094 185.277344 " fill-opacity="1" fill-rule="nonzero"/></g><path fill="#f9fdff" d="M 337.636719 154.492188 C 335.890625 151.875 334.4375 148.964844 334.921875 145.863281 C 335.40625 143.148438 337.054688 140.625 337.152344 137.910156 C 337.34375 133.742188 333.953125 130.347656 330.46875 128.214844 C 328.335938 126.953125 326.011719 125.789062 324.460938 123.949219 C 321.558594 120.457031 322.234375 114.542969 325.914062 111.828125 C 325.914062 111.828125 325.722656 117.160156 333.664062 119.972656 C 341.605469 122.785156 368.144531 137.71875 345.191406 160.503906 C 345.191406 160.503906 341.507812 160.503906 337.636719 154.492188 Z M 337.636719 154.492188 " fill-opacity="1" fill-rule="nonzero"/><g clip-path="url(#a434e2c6c1)"><path fill="#f9fdff" d="M 341.121094 168.070312 L 301.992188 167.972656 L 326.398438 202.394531 L 324.367188 205.207031 L 299.570312 170.976562 L 298.601562 171.464844 C 298.890625 171.464844 299.183594 171.464844 299.472656 171.367188 C 299.667969 176.894531 297.730469 182.515625 294.050781 186.785156 C 290.464844 191.050781 285.136719 193.765625 279.617188 194.445312 L 280.101562 194.445312 C 280.199219 203.074219 273.902344 211.414062 265.574219 213.644531 C 263.441406 214.226562 260.925781 214.03125 258.988281 215.292969 C 255.597656 217.523438 255.886719 218.976562 255.886719 218.976562 C 255.304688 222.179688 257.050781 225.28125 258.117188 228.382812 C 259.277344 231.390625 259.664062 235.367188 257.148438 237.5 L 257.242188 237.402344 C 252.109375 232.164062 246.976562 227.027344 241.84375 221.789062 C 241.648438 221.597656 241.359375 221.304688 241.359375 221.015625 C 241.359375 220.820312 241.554688 220.53125 241.554688 220.335938 C 242.425781 211.800781 249.6875 212.480469 256.371094 208.988281 C 263.054688 205.5 261.988281 196.191406 261.988281 196.191406 C 259.664062 196.578125 257.339844 196.191406 255.304688 195.125 C 253.757812 194.347656 252.402344 193.085938 251.625 191.632812 L 251.527344 191.632812 C 248.332031 196.578125 241.941406 199.292969 236.226562 198.128906 C 230.414062 196.964844 225.570312 192.117188 224.507812 186.300781 C 223.539062 181.0625 225.085938 174.761719 221.308594 171.074219 C 218.984375 168.746094 215.5 168.359375 212.398438 167.488281 C 209.300781 166.613281 205.8125 164.675781 205.523438 161.476562 L 205.523438 161.570312 C 212.6875 160.410156 219.953125 159.246094 227.121094 157.984375 C 227.410156 157.886719 227.800781 157.886719 227.992188 158.082031 C 228.1875 158.179688 228.285156 158.46875 228.378906 158.664062 C 229.640625 161.28125 229.15625 164.675781 227.21875 166.808594 L 227.800781 166.226562 C 227.992188 166.128906 227.507812 166.03125 227.605469 166.226562 C 229.734375 169.910156 232.15625 173.5 234.675781 176.992188 C 235.449219 178.152344 236.324219 179.316406 237.582031 179.996094 C 239.132812 180.773438 240.972656 180.675781 242.617188 179.996094 C 244.265625 179.316406 245.621094 178.25 246.976562 177.085938 C 248.914062 175.4375 250.753906 173.691406 251.820312 171.464844 C 251.820312 171.367188 251.917969 171.269531 252.011719 171.269531 C 252.109375 171.269531 252.011719 171.558594 252.011719 171.464844 L 252.980469 171.65625 C 250.65625 170.589844 249.109375 168.070312 249.109375 165.449219 C 247.171875 166.226562 244.75 165.742188 243.296875 164.289062 C 241.746094 162.832031 241.164062 160.503906 241.84375 158.566406 C 236.613281 157.015625 233.609375 150.519531 235.742188 145.476562 C 233.320312 144.992188 231.769531 142.46875 231.578125 140.046875 C 231.382812 137.621094 232.449219 135.195312 233.609375 133.0625 C 230.511719 130.347656 230.316406 124.917969 233.125 122.007812 C 230.609375 119.679688 230.027344 115.511719 231.769531 112.601562 L 274.289062 148.289062 C 277.679688 147.125 279.90625 143.34375 279.230469 139.851562 L 280.683594 138.976562 C 278.84375 140.335938 276.324219 140.917969 274.289062 139.851562 C 272.257812 138.785156 271.578125 135.585938 273.320312 134.226562 C 270.902344 134.324219 269.351562 130.832031 271.09375 129.085938 C 269.449219 129.960938 267.21875 128.796875 266.640625 127.050781 C 266.058594 125.304688 266.734375 123.269531 268.089844 121.910156 C 269.253906 120.75 271.191406 119.972656 272.644531 120.941406 C 270.609375 119.679688 269.542969 117.0625 270.222656 114.734375 C 270.902344 112.410156 273.128906 110.664062 275.453125 110.664062 C 275.9375 107.558594 278.164062 104.652344 281.070312 103.390625 C 283.976562 102.128906 287.558594 102.421875 290.175781 104.261719 C 290.757812 104.652344 291.242188 105.039062 291.917969 105.136719 C 293.273438 105.328125 294.4375 103.972656 295.695312 103.390625 C 297.632812 102.421875 299.957031 103.390625 301.796875 104.554688 C 303.636719 105.71875 305.285156 107.269531 307.414062 107.65625 C 309.546875 108.140625 312.257812 106.785156 312.257812 104.652344 C 314.097656 106.785156 314.679688 109.886719 313.710938 112.503906 C 312.742188 115.125 310.222656 117.160156 307.511719 117.546875 L 307.898438 117.257812 C 306.445312 119.679688 308.191406 122.6875 309.257812 125.402344 C 310.804688 129.183594 310.804688 133.839844 308.191406 137.039062 C 306.640625 138.976562 304.316406 140.046875 302.183594 141.304688 C 300.054688 142.566406 297.921875 144.214844 297.246094 146.640625 C 296.375 149.449219 298.019531 152.746094 300.734375 153.816406 L 325.527344 119.679688 L 327.5625 122.492188 L 304.121094 154.882812 L 338.699219 157.5 " fill-opacity="1" fill-rule="nonzero"/></g><path fill="#f9fdff" d="M 337.636719 171.269531 C 335.890625 173.886719 334.4375 176.796875 334.921875 179.898438 C 335.40625 182.613281 337.054688 185.136719 337.152344 187.851562 C 337.34375 192.019531 333.953125 195.414062 330.46875 197.546875 C 328.335938 198.808594 326.011719 199.972656 324.460938 201.8125 C 321.558594 205.304688 322.234375 211.21875 325.914062 213.9375 C 325.914062 213.9375 325.722656 208.601562 333.664062 205.789062 C 341.605469 202.882812 368.144531 188.042969 345.191406 165.257812 C 345.191406 165.257812 341.507812 165.257812 337.636719 171.269531 Z M 337.636719 171.269531 " fill-opacity="1" fill-rule="nonzero"/><path fill="#f9fdff" d="M 350.128906 169.523438 L 339.765625 169.523438 C 338.214844 169.523438 336.957031 168.261719 336.957031 166.710938 L 336.957031 158.371094 C 336.957031 156.820312 338.214844 155.558594 339.765625 155.558594 L 350.128906 155.558594 C 351.679688 155.558594 352.9375 156.820312 352.9375 158.371094 L 352.9375 166.808594 C 352.839844 168.261719 351.582031 169.523438 350.128906 169.523438 Z M 350.128906 169.523438 " fill-opacity="1" fill-rule="nonzero"/><path fill="#f9fdff" d="M 320.007812 163.707031 C 320.007812 163.707031 350.90625 163.707031 366.207031 163.707031 C 368.339844 163.707031 370.371094 163.707031 373.277344 163.707031 C 374.246094 163.707031 374.246094 161.765625 373.277344 161.765625 C 357.78125 161.765625 342.089844 161.765625 326.785156 161.765625 C 324.65625 161.765625 321.945312 161.765625 320.007812 161.765625 C 318.070312 161.765625 318.070312 163.707031 320.007812 163.707031 C 320.007812 163.707031 318.070312 163.707031 320.007812 163.707031 Z M 320.007812 163.707031 " fill-opacity="1" fill-rule="nonzero"/><path fill="#f9fdff" d="M 366.402344 168.070312 L 366.402344 157.597656 C 366.402344 157.304688 366.789062 157.113281 366.984375 157.304688 L 374.828125 162.445312 C 375.023438 162.640625 375.023438 162.929688 374.828125 163.125 L 366.984375 168.457031 C 366.691406 168.554688 366.402344 168.359375 366.402344 168.070312 Z M 366.402344 168.070312 " fill-opacity="1" fill-rule="nonzero"/></svg>